<?xml version="1.0" encoding="UTF-8"?>
<svg id="Layer_1" data-name="Layer 1" xmlns="http://www.w3.org/2000/svg" xmlns:xlink="http://www.w3.org/1999/xlink" viewBox="0 0 1098 1458">
  <defs>
    <style>
      .cls-1 {
        fill: url(#linear-gradient-2);
      }

      .cls-2 {
        fill: #231f20;
      }

      .cls-3 {
        fill: url(#linear-gradient);
      }

      .cls-4 {
        fill: #6d3d97;
      }
    </style>
    <linearGradient id="linear-gradient" x1="791.14" y1="1342.22" x2="302.6" y2="496.05" gradientUnits="userSpaceOnUse">
      <stop offset=".01" stop-color="#fab054"/>
      <stop offset=".05" stop-color="#e9a25b"/>
      <stop offset=".14" stop-color="#c3836d"/>
      <stop offset=".24" stop-color="#a4697c"/>
      <stop offset=".34" stop-color="#8b5587"/>
      <stop offset=".45" stop-color="#7a478f"/>
      <stop offset=".56" stop-color="#703e94"/>
      <stop offset=".7" stop-color="#6d3c96"/>
      <stop offset=".76" stop-color="#67388e"/>
      <stop offset=".84" stop-color="#572d7b"/>
      <stop offset=".94" stop-color="#3d1c5a"/>
      <stop offset=".97" stop-color="#34164f"/>
    </linearGradient>
    <linearGradient id="linear-gradient-2" x1="786.53" y1="661.86" x2="786.53" y2="242.02" gradientUnits="userSpaceOnUse">
      <stop offset="0" stop-color="#fab054"/>
      <stop offset=".18" stop-color="#c1816e"/>
      <stop offset=".39" stop-color="#844f8a"/>
      <stop offset=".49" stop-color="#6d3c96"/>
    </linearGradient>
  </defs>
  <path class="cls-3" d="M717.31,1062.12c-30.16-135.95-45.64-271.82-57.74-387.94-7.58-72.74-11.01-199.13-6.42-285.73,1.93-36.35,5.07-87.04,5.96-98.14.21-2.62-65.86,87.48-124,208.63-13.78,28.72-49.85,113.69-92.43,245.33-48.33,149.4-97.33,364.72-108.43,482.12-5.93,62.75-34.43,93.04-29.3,96.79,8.65,6.31,55.63,15.7,89.73,24.81,47.16,12.6,127.54,18.57,163.64,22.15,3.24.32,5.48-3.5,4.42-7.19-7.02-24.55-13.98-42.46-20.51-74.64-11.22-55.27-16.99-106.65-18.96-180.62-2.2-82.27,1.33-129.08,7.33-190.4,5.85-59.73,31.57-179.51,30.61-161.01-2.04,39.2-10.15,199.33-3.19,279.94,7.24,83.8,14.29,136.03,32.07,210.04,11.97,49.81,21.87,89.71,30.48,119.94.64,2.26,2.46,3.73,4.45,3.56,59.3-4.89,111.97-15.26,128.73-19.65,18.71-4.89,57.1-16.68,54.77-18.54-32.76-26.21-68.35-166.4-91.21-269.46Z"/>
  <path class="cls-4" d="M70.61,286.21c2.33-3.38,194.99,32.32,294.92,33.66,88.57,1.18,202.7-6.04,293.78-29.79h0c-.03,10.26-1.29,30.57-3.84,39.91-21.39,78.52-126.28,101.1-235.07,101-23.91-.02-83.14-11.59-110.87-20.4-62.93-20-148.93-63.4-238.93-124.38"/>
  <ellipse class="cls-2" cx="634.53" cy="157.72" rx="68.79" ry="67.57"/>
  <path class="cls-1" d="M982.66,624.85c-51.8-25-105.9-127.85-129.11-166.94-39.27-66.15-73.76-124.75-95.32-152.64-27.84-36.03-51.43-47.39-82.25-55.78-30.27-8.24-94.59-8.05-107.9-6.84-9.6.87-14.5,28.59-12.48,29.1,11.65,2.96,38.16,1.48,47.78,1.36,21.48-.26,42.96-3.97,61.83,4.26,24.22,10.56,29.59,23.15,44.06,45.7,14.13,22.02,24.63,39.2,36.03,58.1,33.35,55.31,42.36,76.69,54.21,101.31,8.49,17.63,19.09,40.73,37.34,77.2,17.33,34.63,42.32,93.73,102.9,101.68,9.61,1.26,18.84.02,29.6-2.33l-26.29-23.21c-1.44-1.27-2.8-2.61-4.09-4.03l-19.58-21.57,36.14,22.1c2.77,1.23,4.95,2.42,8.36,4.19l6.53,2.77c13.74,6.85,29.9,7.81,43.97,1.67,2.21-.96,3.59-1.8,3.55-2.34-.26-2.99-32.33-12.34-35.27-13.76Z"/>
</svg>