<?xml version="1.0" encoding="UTF-8"?>
<svg id="Layer_1" data-name="Layer 1" xmlns="http://www.w3.org/2000/svg" xmlns:xlink="http://www.w3.org/1999/xlink" viewBox="0 0 1776 1406.96">
  <defs>
    <style>
      .cls-1 {
        fill: #231f20;
        stroke: #231f20;
        stroke-miterlimit: 10;
        stroke-width: .5px;
      }

      .cls-2 {
        fill: url(#linear-gradient);
      }
    </style>
    <linearGradient id="linear-gradient" x1="589.83" y1="737.25" x2="253.97" y2="155.53" gradientUnits="userSpaceOnUse">
      <stop offset=".1" stop-color="#fab054"/>
      <stop offset=".27" stop-color="#c1816e"/>
      <stop offset=".47" stop-color="#844f8a"/>
      <stop offset=".56" stop-color="#6d3c96"/>
      <stop offset="1" stop-color="#432564"/>
    </linearGradient>
  </defs>
  <g>
    <path class="cls-1" d="M588.78,836.38c0-53.51,29.85-150.39,41.68-173.48,1.69-3.38,1.69-6.2,1.13-9.01-.56-3.38-3.94-4.51-1.69-9.01,12.39-24.78,15.77-30.98,19.71-32.11,2.25-.56,5.63-.56,9.01,1.13,16.33,6.2,37.74,28.73,33.8,35.49-40.55,63.65-98.01,197.71-76.6,207.84,30.42,14.08,166.73-130.68,228.12-212.35,13.52-18.02,16.9,1.13,10.7,7.89-6.2,6.76-166.16,216.29-233.75,216.29-16.33,0-32.11-6.76-32.11-32.67ZM686.79,528.27c2.25-7.89,13.52-55.76,16.9-68.15,3.38-12.39,40.55,11.27,35.49,23.09s-28.16,46.19-32.67,55.76c-4.51,9.01-21.97-2.82-19.71-10.7Z"/>
    <path class="cls-1" d="M654.12,1052.11c0-49,97.44-139.13,205.03-217.98-5.63-1.13-11.83-2.82-18.02-4.51-28.73-9.01-67.59-33.8-67.59-64.78,0-58.02,62.52-109.84,92.38-132.93,7.32-5.07,10.14-9.01,10.7-14.64.56-4.51,4.51-8.45,12.96-12.39,25.35-11.27,55.76-27.04,68.72-27.04,15.21,0,26.47,27.04,12.39,32.11-52.38,18.59-174.61,115.47-174.61,163.35,0,19.71,37.17,24.22,68.72,33.8,7.89,2.25,15.21,5.07,21.97,7.89,83.93-59.14,169.54-108.71,217.98-125.04,3.94-1.13,9.01,9.58,5.63,10.7-47.31,15.77-127.3,64.21-206.15,121.66,30.98,16.33,40.55,36.05,40.55,65.34,0,70.97-159.97,216.29-238.26,216.29-38.87,0-52.38-30.42-52.38-51.82ZM697.49,1085.34c87.31-10.14,219.67-167.29,219.67-226.43,0-11.83-14.65-15.77-35.49-19.71-108.71,82.8-209.53,179.12-209.53,225.87,0,10.7,7.89,22.53,25.35,20.28Z"/>
    <path class="cls-1" d="M1040.52,950.15c0-139.69,152.64-609.45,242.77-728.3,9.01-11.83,19.71-18.59,26.47-18.59,21.4,0,50.13,16.9,47.31,24.78-2.82,8.45-19.15,0-35.49,12.39-86.74,66.47-237.13,553.12-237.13,644.94,71.53-129.55,153.77-239.39,190.38-239.39,29.29,0,44.5,28.16,43.37,50.69-1.69,35.49-26.47,81.11-26.47,114.91,0,12.39,4.51,18.59,13.52,18.59,38.3,0,126.73-104.77,187.57-179.68,3.94-5.07,14.08,3.38,5.63,14.08-60.83,74.91-153.21,183.62-185.31,183.62s-52.38-24.78-52.38-47.31,19.71-98.01,19.71-117.16c0-9.01-1.69-15.77-7.32-15.77-32.11,0-145.89,159.97-197.71,296.84-3.38,8.45-34.92-4.51-34.92-14.65Z"/>
  </g>
  <path class="cls-2" d="M199.91,209.89c.43,2.42.65,4.5.77,5.64.15,1.44.25,2.66.31,3.57l.58,12.43s40.28-32.06,64.65-46.27c24.37-14.22,90.89-26.91,90.89-26.91,0,0,50.73-7.29,86.32-5.02,35.29,2.25,94.62,13.42,135.41,24.2,40.78,10.78,147.27,31.66,147.27,31.66l49.73-39.16,10.11-8.02s5.97-3.15,12.23-2.64c6.26.51,15.74,10.49,15.74,10.49l16.76,19.63s4.55,7.34,4.56,11.63c.01,4.28-.33,4.11-2.02,8.35-1.69,4.23-34.36,27.76-41.13,32.83-6.77,5.08-224.94,185.75-224.94,185.75l-161.8,150.3s-78.03,79.38-97.83,108.83c-19.8,29.45-26.4,31.48-48.74,69.05-22.34,37.57-36.05,59.41-47.73,91.4-11.68,31.99-19.8,60.42-19.8,78.7s1.52,27.93,2.54,34.53c1.02,6.6-10.41,10.62-10.41,10.62,0,0-13.71,1.32-17.77-4.27-4.06-5.59-6.6-15.74-7.11-23.61-.51-7.87,0-33.34,0-33.34,0,0,5.63-37.19,7.28-43.29,1.65-6.09,12.95-43.2,18.28-55.13,5.33-11.93,32.96-68.72,63.43-112.72,30.47-44.01,78.53-104.82,107.64-136.7,29.11-31.88,197.01-204.86,258.62-257.66,61.61-52.81,81.24-70.41,81.24-70.41l-59.92-6.43-125.08-15.91s-77.18-7.62-125.92-2.54c-48.74,5.08-37.74,3.05-59.07,9.48-21.33,6.43-30.47,9.14-48.74,21.33-18.28,12.19-25.39,18.62-32.5,26.4-7.11,7.79-26.06,33.51-30.8,46.38-4.74,12.86-14.22,37.57-14.22,37.57,0,0-5.73,12.31-15.23,14.89-9.5,2.59-12.19,3.05-21.33,1.69-9.14-1.35-13.88-8.46-16.93-13.54-3.05-5.08-2.34-18.26,0-26.74,2.34-8.48,17.94-40.28,21.33-47.39,3.39-7.11,10.16-24.37,11.85-32.16,1.15-5.29,3.05-39.24,4.4-44.94.09-.36.35-1.4.84-2.66.75-1.92,1.53-3.87,3.35-5.38.78-.65,1.9-1.58,3.43-1.56.63,0,1.68.18,3.19,1.47,2.8,2.38,3.8,5.7,4.94,9.65.72,2.48,1.08,4.55,1.33,5.94Z"/>
  <g>
    <path d="M121.08,1195.01h13.19l16.5,45.99c2.07,5.88,4.04,11.96,6.12,17.94h.52c2.07-5.98,3.88-12.05,5.95-17.94l16.31-45.99h13.19v86.08h-10.18v-47.39c0-7.5.84-17.84,1.39-25.45h-.52l-6.83,19.63-16.21,44.53h-7.26l-16.29-44.53-6.82-19.63h-.52c.55,7.61,1.39,17.96,1.39,25.45v47.39h-9.92v-86.08Z"/>
    <path d="M268.22,1195.01h12.36l29.12,86.08h-11.6l-15.01-48.07c-3.09-9.62-5.85-19.07-8.62-29.01h-.53c-2.67,9.98-5.43,19.38-8.52,29.01l-15.17,48.07h-11.15l29.12-86.08ZM254.41,1246.12h39.63v8.74h-39.63v-8.74Z"/>
    <path d="M355.44,1195.01h10.95v43.18h.36l35.76-43.18h12.39l-26.93,32.8,31.09,53.28h-12.22l-25.68-44.72-14.76,17.51v27.21h-10.95v-86.08Z"/>
    <path d="M465.48,1195.01h49.61v9.27h-38.66v26.97h32.61v9.27h-32.61v31.29h39.97v9.27h-50.92v-86.08Z"/>
    <path d="M642.98,1247.73l-25.87-52.72h11.7l11.1,24.3c2.76,6.34,5.36,12.33,8.33,18.77h.52c2.98-6.44,5.95-12.42,8.6-18.77l11.1-24.3h11.34l-25.87,52.72v33.36h-10.95v-33.36Z"/>
    <path d="M718.71,1237.73c0-27.57,15.17-44.3,36.79-44.3s36.79,16.78,36.79,44.3-15.17,44.92-36.79,44.92-36.79-17.35-36.79-44.92ZM780.98,1237.73c0-21.44-10.11-34.67-25.48-34.67s-25.48,13.23-25.48,34.67,10.11,35.29,25.48,35.29,25.48-13.85,25.48-35.29Z"/>
    <path d="M844.53,1245.54v-50.53h10.95v50.83c0,20.68,8.74,27.19,19.98,27.19s20.41-6.5,20.41-27.19v-50.83h10.5v50.53c0,27.62-13.34,37.12-30.91,37.12s-30.93-9.5-30.93-37.12Z"/>
    <path d="M963.58,1195.01h26.96c17.53,0,30.12,6.29,30.12,24.23s-12.59,25.47-30.12,25.47h-16v36.38h-10.95v-86.08ZM988.97,1235.82c13.39,0,20.77-5.43,20.77-16.58s-7.37-15.34-20.77-15.34h-14.43v31.92h14.43ZM988.38,1241.7l8.58-5.67,26.26,45.05h-12.42l-22.43-39.38Z"/>
    <path d="M1123.84,1195.01h11.31l9.03,46.86c1.66,9.25,3.38,18.5,5.04,27.75h.52c1.91-9.25,3.98-18.55,6.05-27.75l11.94-46.86h9.93l11.94,46.86c2.07,9.1,4.14,18.45,6.21,27.75h.52c1.66-9.3,3.21-18.6,4.88-27.75l9.03-46.86h10.57l-17.81,86.08h-13.17l-13.02-51.74c-1.48-6.72-2.86-12.98-4.14-19.6h-.53c-1.33,6.63-2.83,12.88-4.31,19.6l-12.76,51.74h-12.98l-18.27-86.08Z"/>
    <path d="M1269.82,1195.01h10.95v86.08h-10.95v-86.08Z"/>
    <path d="M1332.17,1269.88l6.55-7.52c6.2,6.43,14.8,10.67,23.75,10.67,11.3,0,17.99-5.63,17.99-13.99,0-8.79-6.23-11.59-14.36-15.14l-12.36-5.45c-8.02-3.42-17.43-9.5-17.43-22.16s11.46-22.85,27.1-22.85c10.2,0,19.3,4.42,25.34,10.66l-5.81,7.04c-5.27-4.98-11.58-8.07-19.54-8.07-9.65,0-16.05,4.87-16.05,12.57,0,8.29,7.5,11.39,14.25,14.24l12.27,5.31c9.96,4.28,17.73,10.21,17.73,23.01,0,13.6-11.24,24.46-29.33,24.46-12.08,0-22.58-4.93-30.11-12.78Z"/>
    <path d="M1442.54,1195.01h10.95v36.05h40.03v-36.05h10.95v86.08h-10.95v-40.47h-40.03v40.47h-10.95v-86.08Z"/>
  </g>
</svg>